<?xml version="1.0" encoding="UTF-8"?>
<svg xmlns="http://www.w3.org/2000/svg" xmlns:xlink="http://www.w3.org/1999/xlink" width="30px" height="46px" viewBox="0 0 30 46" version="1.1">
<g id="surface1">
<path style=" stroke:none;fill-rule:nonzero;fill:rgb(0%,68.235296%,93.725491%);fill-opacity:1;" d="M 15.03125 45.316406 C 15.03125 45.328125 15.050781 45.34375 15.050781 45.34375 C 15.050781 45.34375 29.449219 23.246094 29.449219 15.984375 C 29.449219 5.296875 22.152344 0.648438 15.03125 0.632812 C 7.914062 0.648438 0.617188 5.296875 0.617188 15.984375 C 0.617188 23.246094 15.023438 45.34375 15.023438 45.34375 C 15.023438 45.34375 15.03125 45.316406 15.03125 45.316406 Z M 10.042969 15.378906 C 10.042969 12.617188 12.28125 10.382812 15.042969 10.382812 C 17.804688 10.382812 20.039062 12.617188 20.039062 15.378906 C 20.039062 18.136719 17.792969 20.371094 15.03125 20.371094 C 12.28125 20.371094 10.042969 18.136719 10.042969 15.378906 Z M 10.042969 15.378906 "/>
</g>
</svg>
